<svg xmlns="http://www.w3.org/2000/svg" viewBox="0 0 512 512" width="100%" height="100%"><metadata><rdf:RDF xmlns:rdf="http://www.w3.org/1999/02/22-rdf-syntax-ns#" xmlns:dc="http://purl.org/dc/elements/1.1/"><rdf:Description><dc:creator>RealFaviconGenerator</dc:creator><dc:source>https://realfavicongenerator.net</dc:source></rdf:Description></rdf:RDF></metadata><defs>
    <linearGradient id="opt1Bg" x1="0%" y1="0%" x2="100%" y2="100%">
      <stop offset="0%" stop-color="#0b1329"></stop>
      <stop offset="100%" stop-color="#02050b"></stop>
    </linearGradient>
    <linearGradient id="bubbleBack" x1="0%" y1="0%" x2="100%" y2="100%">
      <stop offset="0%" stop-color="#059669"></stop>
      <stop offset="100%" stop-color="#047857"></stop>
    </linearGradient>
    <linearGradient id="bubbleFront" x1="0%" y1="0%" x2="100%" y2="100%">
      <stop offset="0%" stop-color="#2dd4bf"></stop>
      <stop offset="100%" stop-color="#0d9488"></stop>
    </linearGradient>
    <filter id="opt1Shadow" x="-20%" y="-20%" width="140%" height="140%">
      <feDropShadow dx="0" dy="12" stdDeviation="16" flood-color="#000000" flood-opacity="0.5"></feDropShadow>
    </filter>
  </defs><rect width="512" height="512" rx="128" fill="url(#opt1Bg)"></rect><g opacity="0.65">
    <rect x="120" y="140" width="190" height="130" rx="38" fill="url(#bubbleBack)"></rect>
    <path d="M 140 270 L 110 300 L 165 270 Z" fill="url(#bubbleBack)"></path>
  </g><g filter="url(#opt1Shadow)">
    <rect x="200" y="220" width="200" height="140" rx="42" fill="url(#bubbleFront)"></rect>
    <path d="M 370 360 L 405 395 L 340 360 Z" fill="url(#bubbleFront)"></path>
    
    <!-- Audio / Pulse Wave Lines inside front bubble -->
    <rect x="250" y="275" width="8" height="30" rx="4" fill="#ffffff" opacity="0.9"></rect>
    <rect x="272" y="260" width="8" height="60" rx="4" fill="#ffffff"></rect>
    <rect x="294" y="270" width="8" height="40" rx="4" fill="#ffffff" opacity="0.9"></rect>
    <rect x="316" y="280" width="8" height="20" rx="4" fill="#ffffff" opacity="0.75"></rect>
    <rect x="338" y="283" width="8" height="14" rx="4" fill="#ffffff" opacity="0.6"></rect>
  </g></svg>